<svg xmlns="http://www.w3.org/2000/svg" xmlns:xlink="http://www.w3.org/1999/xlink" width="610" zoomAndPan="magnify" viewBox="0 0 457.5 110.249996" height="147" preserveAspectRatio="xMidYMid meet" version="1.0"><defs><g/><clipPath id="fedf200ff4"><path d="M 1.296875 18.953125 L 140.984375 18.953125 L 140.984375 103.875 L 1.296875 103.875 Z M 1.296875 18.953125 " clip-rule="nonzero"/></clipPath></defs><path fill="#262755" d="M 66.972656 30.644531 C 66.984375 30.625 66.996094 30.609375 67.011719 30.597656 C 66.996094 30.625 66.972656 30.652344 66.949219 30.675781 Z M 66.972656 30.644531 " fill-opacity="1" fill-rule="nonzero"/><path fill="#262755" d="M 65.21875 33.636719 L 65.21875 33.621094 C 65.21875 33.644531 65.203125 33.667969 65.191406 33.691406 C 65.199219 33.671875 65.207031 33.652344 65.21875 33.636719 Z M 65.21875 33.636719 " fill-opacity="1" fill-rule="nonzero"/><path fill="#262755" d="M 69.644531 27.960938 L 69.679688 27.933594 C 69.621094 27.988281 69.441406 28.113281 69.644531 27.960938 Z M 69.644531 27.960938 " fill-opacity="1" fill-rule="nonzero"/><path fill="#262755" d="M 72.820312 26.097656 C 72.847656 26.082031 72.878906 26.074219 72.914062 26.074219 C 72.867188 26.089844 72.824219 26.105469 72.777344 26.117188 Z M 72.820312 26.097656 " fill-opacity="1" fill-rule="nonzero"/><g clip-path="url(#fedf200ff4)"><path fill="#262755" d="M 2.148438 82.34375 C 2.148438 82.324219 2.117188 82.265625 2.101562 82.226562 L 2.054688 82.113281 L 1.976562 81.898438 C 1.925781 81.757812 1.875 81.613281 1.828125 81.46875 C 1.714844 81.105469 1.613281 80.738281 1.535156 80.367188 C 1.507812 80.21875 1.476562 80.074219 1.449219 79.917969 C 1.449219 79.84375 1.425781 79.769531 1.414062 79.695312 C 1.34375 79.023438 1.328125 78.355469 1.371094 77.679688 C 1.371094 77.589844 1.386719 77.503906 1.394531 77.410156 C 1.394531 77.394531 1.421875 77.214844 1.425781 77.199219 L 1.425781 77.160156 C 1.425781 77.085938 1.449219 77.015625 1.460938 76.945312 C 1.519531 76.652344 1.589844 76.347656 1.675781 76.054688 C 1.761719 75.761719 1.878906 75.398438 2.003906 75.082031 C 2.019531 75.039062 2.035156 75 2.054688 74.957031 L 2.054688 74.929688 C 2.125 74.785156 2.191406 74.640625 2.265625 74.492188 C 2.417969 74.191406 2.585938 73.898438 2.769531 73.613281 C 2.847656 73.492188 2.925781 73.375 3.007812 73.253906 L 3.164062 73.035156 L 3.230469 72.9375 C 3.59375 72.449219 4.019531 72.019531 4.5 71.648438 L 4.652344 71.519531 L 4.710938 71.476562 C 4.824219 71.394531 4.941406 71.308594 5.058594 71.230469 C 5.328125 71.050781 5.605469 70.890625 5.890625 70.742188 C 6.054688 70.6875 6.210938 70.613281 6.359375 70.519531 L 6.5 70.464844 C 6.792969 70.359375 7.085938 70.269531 7.375 70.191406 C 7.546875 70.152344 7.714844 70.117188 7.886719 70.085938 L 8.089844 70.050781 C 8.324219 70.003906 8.109375 70.035156 8.03125 70.050781 C 8.332031 69.988281 8.636719 69.964844 8.941406 69.988281 C 9.269531 69.980469 9.597656 69.992188 9.925781 70.019531 L 10.136719 70.039062 C 10.167969 70.046875 10.203125 70.046875 10.234375 70.039062 C 10.335938 70.054688 10.445312 70.09375 10.527344 70.105469 C 10.847656 70.167969 11.164062 70.25 11.476562 70.347656 C 11.625 70.394531 11.769531 70.445312 11.917969 70.5 C 11.964844 70.515625 12.011719 70.53125 12.054688 70.550781 C 12.199219 70.640625 12.351562 70.714844 12.511719 70.769531 C 12.648438 70.839844 12.78125 70.914062 12.914062 70.992188 C 13.167969 71.113281 13.402344 71.269531 13.617188 71.453125 L 13.664062 71.503906 L 13.824219 71.636719 C 13.9375 71.738281 14.050781 71.84375 14.160156 71.953125 C 14.269531 72.0625 14.375 72.179688 14.480469 72.292969 C 14.515625 72.335938 14.640625 72.496094 14.671875 72.53125 C 14.890625 72.835938 15.085938 73.152344 15.257812 73.480469 C 15.285156 73.539062 15.382812 73.753906 15.398438 73.773438 C 15.445312 73.886719 15.492188 74.003906 15.527344 74.121094 C 15.597656 74.332031 15.65625 74.546875 15.703125 74.757812 C 15.71875 74.835938 15.738281 74.917969 15.75 74.996094 C 15.753906 75.011719 15.757812 75.027344 15.761719 75.046875 C 15.816406 75.378906 15.816406 75.710938 15.761719 76.042969 C 15.761719 76.09375 15.761719 76.128906 15.761719 76.152344 C 15.761719 76.175781 15.738281 76.257812 15.730469 76.304688 C 15.699219 76.460938 15.65625 76.617188 15.609375 76.777344 C 15.585938 76.863281 15.5625 76.980469 15.527344 77.070312 C 15.511719 77.089844 15.5 77.109375 15.488281 77.128906 C 15.445312 77.210938 15.410156 77.292969 15.363281 77.375 C 15.28125 77.53125 15.191406 77.6875 15.089844 77.835938 L 15 77.96875 L 14.957031 78.011719 C 14.863281 78.117188 14.769531 78.226562 14.664062 78.324219 C 14.605469 78.386719 14.539062 78.445312 14.46875 78.503906 L 14.398438 78.5625 L 14.25 78.660156 L 14.066406 78.773438 C 14 78.808594 13.933594 78.84375 13.867188 78.875 C 13.820312 78.875 13.78125 78.886719 13.742188 78.910156 C 13.660156 78.945312 13.570312 78.984375 13.507812 79.003906 C 13.441406 79.019531 13.34375 79.042969 13.257812 79.0625 L 13.207031 79.078125 C 13.398438 79 13.121094 79.078125 13.042969 79.078125 L 12.789062 79.078125 C 12.71875 79.078125 12.628906 79.0625 12.542969 79.054688 C 12.492188 79.042969 12.445312 79.042969 12.394531 79.054688 L 12.21875 79.019531 C 12.070312 78.984375 11.925781 78.933594 11.78125 78.890625 L 11.765625 78.890625 L 11.578125 78.796875 C 11.460938 78.730469 11.347656 78.65625 11.238281 78.585938 L 11.195312 78.558594 L 11.105469 78.464844 C 10.996094 78.359375 10.894531 78.246094 10.800781 78.128906 C 10.285156 77.492188 9.265625 77.636719 8.730469 78.128906 C 8.109375 78.714844 8.25 79.605469 8.730469 80.195312 C 9.207031 80.765625 9.785156 81.199219 10.464844 81.496094 C 11.253906 81.847656 12.082031 82.015625 12.949219 81.992188 C 13.8125 81.96875 14.628906 81.757812 15.398438 81.359375 C 16.140625 80.949219 16.773438 80.410156 17.296875 79.746094 C 17.824219 79.082031 18.203125 78.34375 18.433594 77.53125 C 19.074219 75.417969 18.582031 73.234375 17.441406 71.429688 C 17.472656 71.234375 17.46875 71.039062 17.425781 70.84375 C 17.402344 70.757812 17.25 70.296875 17.378906 70.667969 C 17.34375 70.515625 17.335938 70.363281 17.351562 70.210938 C 17.351562 70.058594 17.351562 69.917969 17.371094 69.75 C 17.371094 69.730469 17.378906 69.695312 17.398438 69.644531 C 17.429688 69.355469 17.511719 69.078125 17.640625 68.816406 C 17.441406 69.109375 17.695312 68.710938 17.734375 68.640625 C 17.792969 68.519531 17.863281 68.402344 17.9375 68.289062 C 17.984375 68.210938 18.039062 68.136719 18.089844 68.0625 C 18.089844 68.0625 18.265625 67.84375 18.300781 67.804688 C 18.40625 67.695312 18.519531 67.585938 18.628906 67.480469 L 18.847656 67.300781 L 19.0625 67.152344 C 19.191406 67.070312 19.324219 66.988281 19.457031 66.914062 C 19.589844 66.839844 19.730469 66.777344 19.867188 66.710938 L 19.894531 66.695312 L 19.996094 66.65625 C 20.269531 66.558594 20.546875 66.476562 20.828125 66.410156 C 20.976562 66.378906 21.121094 66.351562 21.273438 66.324219 L 21.46875 66.304688 C 21.761719 66.285156 22.054688 66.285156 22.347656 66.304688 C 22.414062 66.304688 22.863281 66.378906 22.640625 66.335938 C 22.785156 66.359375 22.925781 66.390625 23.070312 66.429688 C 23.160156 66.453125 23.25 66.488281 23.339844 66.515625 C 23.242188 66.488281 23.59375 66.628906 23.648438 66.664062 C 23.757812 66.722656 23.863281 66.789062 23.960938 66.859375 L 24.121094 67.023438 C 24.175781 67.082031 24.230469 67.136719 24.28125 67.199219 L 24.351562 67.316406 C 24.394531 67.535156 24.445312 67.746094 24.503906 67.957031 C 24.566406 68.179688 24.671875 68.375 24.828125 68.542969 C 25.113281 68.953125 25.5 69.160156 26 69.15625 C 26.726562 69.191406 27.554688 68.457031 27.460938 67.695312 C 27.414062 67.257812 27.3125 66.832031 27.152344 66.421875 C 27.128906 66.339844 27.117188 66.257812 27.113281 66.175781 L 27.113281 66.238281 C 27.113281 66.1875 27.113281 66.132812 27.113281 66.105469 C 27.074219 65.683594 27.066406 65.261719 27.089844 64.839844 C 27.089844 64.726562 27.101562 64.613281 27.113281 64.496094 C 27.113281 64.496094 27.113281 64.441406 27.113281 64.394531 C 27.113281 64.34375 27.152344 64.101562 27.160156 64.085938 C 27.160156 64.007812 27.1875 63.9375 27.203125 63.859375 C 27.289062 63.445312 27.40625 63.035156 27.550781 62.636719 L 27.636719 62.417969 C 27.660156 62.359375 27.707031 62.242188 27.710938 62.238281 C 27.789062 62.0625 27.878906 61.890625 27.96875 61.722656 C 28.144531 61.398438 28.339844 61.089844 28.554688 60.792969 C 28.582031 60.75 28.613281 60.707031 28.644531 60.667969 C 28.671875 60.625 28.734375 60.550781 28.785156 60.496094 C 28.90625 60.351562 29.03125 60.203125 29.164062 60.074219 C 29.414062 59.816406 29.675781 59.570312 29.953125 59.339844 L 30.039062 59.269531 L 30.058594 59.269531 L 30.242188 59.132812 C 30.398438 59.023438 30.558594 58.921875 30.71875 58.816406 C 31.023438 58.625 31.339844 58.453125 31.664062 58.292969 L 32.023438 58.125 L 32.074219 58.097656 C 32.21875 58.035156 32.386719 57.988281 32.527344 57.941406 C 32.867188 57.828125 33.214844 57.726562 33.566406 57.648438 C 33.773438 57.601562 33.976562 57.558594 34.179688 57.523438 L 34.316406 57.503906 L 34.46875 57.488281 C 34.847656 57.449219 35.226562 57.429688 35.605469 57.433594 C 36.011719 57.4375 36.417969 57.464844 36.820312 57.511719 L 36.941406 57.527344 L 37.234375 57.582031 C 37.429688 57.621094 37.632812 57.667969 37.839844 57.714844 C 38.242188 57.816406 38.636719 57.933594 39.023438 58.074219 L 39.316406 58.183594 L 39.453125 58.238281 C 39.613281 58.308594 39.777344 58.382812 39.933594 58.460938 C 40.398438 58.691406 40.851562 58.949219 41.28125 59.234375 L 41.445312 59.476562 C 41.546875 59.640625 41.675781 59.777344 41.832031 59.894531 C 41.984375 60.007812 42.15625 60.089844 42.34375 60.136719 C 42.527344 60.1875 42.714844 60.199219 42.90625 60.175781 C 43.097656 60.152344 43.277344 60.09375 43.445312 60.003906 C 43.820312 59.78125 44.050781 59.460938 44.136719 59.039062 C 44.265625 58.730469 44.292969 58.414062 44.214844 58.089844 C 44.101562 57.714844 43.875 57.421875 43.546875 57.210938 L 43.46875 57.160156 C 43.242188 56.785156 43.035156 56.402344 42.847656 56.003906 C 42.828125 55.964844 42.792969 55.902344 42.761719 55.839844 C 42.75 55.800781 42.738281 55.761719 42.71875 55.722656 C 42.648438 55.546875 42.582031 55.371094 42.515625 55.191406 C 42.386719 54.832031 42.277344 54.46875 42.179688 54.101562 C 42.085938 53.730469 42.011719 53.394531 41.949219 53.039062 C 41.933594 52.945312 41.917969 52.851562 41.902344 52.746094 C 41.902344 52.730469 41.902344 52.722656 41.902344 52.714844 C 41.886719 52.550781 41.863281 52.390625 41.851562 52.226562 C 41.785156 51.464844 41.785156 50.703125 41.851562 49.941406 C 41.839844 49.75 41.859375 49.558594 41.910156 49.375 C 41.894531 49.398438 41.855469 49.714844 41.910156 49.421875 L 41.945312 49.195312 C 42 48.875 42.0625 48.558594 42.144531 48.246094 C 42.222656 47.933594 42.324219 47.585938 42.433594 47.261719 C 42.492188 47.097656 42.550781 46.9375 42.609375 46.777344 L 42.644531 46.683594 C 42.644531 46.664062 42.664062 46.640625 42.679688 46.597656 C 42.941406 46.019531 43.242188 45.460938 43.582031 44.925781 C 43.75 44.660156 43.933594 44.410156 44.117188 44.15625 C 44.171875 44.089844 44.226562 44.023438 44.277344 43.960938 L 44.570312 43.632812 C 44.988281 43.160156 45.441406 42.71875 45.921875 42.3125 C 46.042969 42.207031 46.167969 42.109375 46.300781 42.019531 C 45.972656 42.230469 46.417969 41.9375 46.476562 41.890625 C 46.726562 41.710938 46.980469 41.542969 47.242188 41.378906 C 47.765625 41.0625 48.308594 40.777344 48.863281 40.523438 L 48.898438 40.503906 L 49.101562 40.425781 C 49.25 40.367188 49.402344 40.3125 49.558594 40.257812 C 49.851562 40.15625 50.140625 40.070312 50.433594 39.988281 C 50.726562 39.910156 51.0625 39.835938 51.382812 39.773438 C 51.503906 39.75 51.632812 39.734375 51.757812 39.710938 C 51.824219 39.707031 51.890625 39.699219 51.957031 39.6875 C 52.613281 39.617188 53.273438 39.601562 53.9375 39.640625 C 54.121094 39.640625 54.300781 39.664062 54.484375 39.683594 C 54.597656 39.683594 55.027344 39.703125 54.648438 39.699219 C 54.945312 39.722656 55.238281 39.773438 55.523438 39.855469 C 56.175781 39.996094 56.808594 40.183594 57.429688 40.417969 L 57.691406 40.519531 L 57.722656 40.519531 C 57.847656 40.5625 57.976562 40.636719 58.101562 40.691406 C 58.367188 40.820312 58.628906 40.957031 58.886719 41.097656 C 59.179688 41.269531 59.492188 41.453125 59.785156 41.644531 C 59.910156 41.726562 60.03125 41.808594 60.152344 41.898438 L 60.339844 42.03125 C 60.847656 42.40625 61.3125 42.824219 61.734375 43.292969 C 61.851562 43.417969 61.96875 43.546875 62.082031 43.675781 C 62.179688 43.96875 62.285156 44.242188 62.398438 44.519531 C 63.007812 46.035156 63.867188 47.390625 64.980469 48.589844 C 66.097656 49.785156 67.386719 50.742188 68.859375 51.457031 C 71.695312 52.796875 75.078125 53.210938 78.058594 52.074219 C 79.542969 51.503906 80.855469 50.65625 81.988281 49.539062 C 83.125 48.421875 83.988281 47.125 84.582031 45.648438 C 85.769531 42.691406 85.441406 38.980469 83.203125 36.597656 C 80.925781 34.167969 76.691406 34.128906 74.761719 36.996094 C 74.304688 37.675781 74.65625 38.59375 75.289062 39 C 75.980469 39.445312 76.863281 39.105469 77.289062 38.476562 L 77.316406 38.429688 L 77.410156 38.332031 C 77.410156 38.3125 77.511719 38.242188 77.582031 38.175781 C 77.617188 38.160156 77.667969 38.128906 77.675781 38.101562 L 77.839844 38 L 77.945312 37.941406 C 78.042969 37.921875 78.300781 37.8125 78.351562 37.800781 C 78.496094 37.78125 78.640625 37.753906 78.78125 37.71875 L 78.894531 37.71875 C 79.054688 37.710938 79.214844 37.710938 79.375 37.71875 C 79.453125 37.71875 79.667969 37.683594 79.464844 37.71875 C 79.261719 37.753906 79.464844 37.71875 79.550781 37.742188 C 79.675781 37.769531 79.800781 37.800781 79.921875 37.839844 C 79.992188 37.859375 80.0625 37.894531 80.132812 37.910156 C 80.203125 37.925781 80.339844 38.015625 80.441406 38.078125 C 80.542969 38.136719 80.617188 38.191406 80.703125 38.25 L 80.796875 38.308594 C 80.894531 38.394531 80.992188 38.507812 81.0625 38.578125 C 81.132812 38.648438 81.253906 38.789062 81.355469 38.898438 L 81.402344 38.953125 C 81.429688 39 81.453125 39.046875 81.476562 39.078125 C 81.664062 39.347656 81.820312 39.636719 81.945312 39.941406 C 81.972656 40.027344 82.019531 40.160156 82.03125 40.199219 C 82.082031 40.359375 82.128906 40.515625 82.171875 40.675781 C 82.210938 40.839844 82.253906 41.035156 82.285156 41.214844 C 82.285156 41.253906 82.285156 41.292969 82.308594 41.339844 C 82.332031 41.382812 82.308594 41.402344 82.308594 41.425781 C 82.335938 41.746094 82.347656 42.066406 82.335938 42.386719 C 82.335938 42.558594 82.324219 42.730469 82.300781 42.902344 L 82.300781 42.96875 C 82.300781 43.011719 82.277344 43.054688 82.277344 43.078125 C 82.222656 43.382812 82.152344 43.683594 82.066406 43.984375 C 82.019531 44.148438 81.96875 44.3125 81.910156 44.472656 L 81.839844 44.667969 L 81.8125 44.734375 L 81.746094 44.890625 L 81.660156 45.078125 C 81.597656 45.203125 81.53125 45.324219 81.46875 45.449219 C 81.300781 45.742188 81.117188 46.03125 80.921875 46.324219 C 80.855469 46.417969 80.792969 46.519531 80.71875 46.617188 L 80.679688 46.664062 L 80.511719 46.863281 C 80.308594 47.101562 80.089844 47.328125 79.863281 47.546875 C 79.652344 47.785156 79.417969 47.992188 79.15625 48.167969 L 79.109375 48.199219 L 78.9375 48.320312 C 78.796875 48.417969 78.644531 48.515625 78.5 48.613281 C 78.25 48.769531 77.992188 48.90625 77.722656 49.046875 L 77.433594 49.179688 L 77.375 49.210938 C 77.273438 49.257812 77.160156 49.292969 77.054688 49.328125 C 76.757812 49.433594 76.460938 49.523438 76.152344 49.597656 C 75.980469 49.640625 75.804688 49.675781 75.628906 49.710938 L 75.394531 49.75 C 75.082031 49.78125 74.769531 49.804688 74.453125 49.8125 C 74.113281 49.820312 73.769531 49.808594 73.429688 49.78125 L 73.210938 49.761719 L 73.117188 49.761719 L 72.957031 49.738281 L 72.742188 49.699219 C 72.101562 49.582031 71.472656 49.410156 70.863281 49.179688 L 70.570312 49.0625 C 70.421875 48.988281 70.277344 48.925781 70.125 48.851562 C 69.832031 48.710938 69.539062 48.558594 69.261719 48.382812 C 68.984375 48.203125 68.675781 48.011719 68.386719 47.796875 L 68.371094 47.796875 L 68.203125 47.667969 C 68.089844 47.578125 67.976562 47.480469 67.871094 47.375 C 67.367188 46.960938 66.914062 46.496094 66.515625 45.976562 C 66.492188 45.933594 66.464844 45.894531 66.433594 45.855469 L 66.265625 45.621094 C 66.175781 45.496094 66.09375 45.367188 66.011719 45.238281 C 65.824219 44.945312 65.652344 44.652344 65.488281 44.335938 C 65.480469 44.320312 65.472656 44.300781 65.464844 44.285156 C 65.585938 43.886719 65.535156 43.515625 65.316406 43.164062 C 65.117188 42.871094 64.90625 42.578125 64.683594 42.285156 C 64.515625 41.703125 64.386719 41.109375 64.289062 40.511719 L 64.289062 40.4375 L 64.265625 40.207031 C 64.246094 40.035156 64.230469 39.859375 64.21875 39.6875 C 64.195312 39.335938 64.1875 38.988281 64.191406 38.636719 C 64.195312 38.289062 64.207031 37.902344 64.238281 37.53125 C 64.253906 37.359375 64.277344 37.183594 64.289062 37.011719 L 64.324219 36.78125 C 64.4375 36.101562 64.59375 35.433594 64.800781 34.777344 C 64.910156 34.445312 65.027344 34.109375 65.160156 33.785156 C 65.160156 33.761719 65.183594 33.730469 65.195312 33.703125 C 65.175781 33.773438 65.195312 33.804688 65.230469 33.609375 C 65.300781 33.460938 65.363281 33.316406 65.433594 33.167969 C 65.710938 32.601562 66.023438 32.050781 66.367188 31.519531 C 66.546875 31.226562 66.746094 30.964844 66.953125 30.695312 C 67.074219 30.605469 67.070312 30.566406 67.019531 30.609375 L 67.070312 30.535156 C 67.171875 30.410156 67.273438 30.289062 67.363281 30.167969 C 67.789062 29.671875 68.238281 29.203125 68.71875 28.761719 C 68.976562 28.523438 69.242188 28.292969 69.515625 28.074219 C 69.539062 28.054688 69.640625 27.984375 69.667969 27.953125 C 69.785156 27.867188 69.898438 27.785156 70.015625 27.703125 C 70.546875 27.324219 71.097656 26.980469 71.671875 26.667969 C 71.960938 26.511719 72.253906 26.363281 72.566406 26.226562 C 72.632812 26.191406 72.695312 26.167969 72.761719 26.136719 C 72.90625 26.109375 72.929688 26.089844 72.902344 26.089844 C 73 26.050781 73.101562 25.996094 73.195312 25.964844 C 73.800781 25.730469 74.421875 25.535156 75.058594 25.378906 C 75.382812 25.304688 75.710938 25.238281 76.042969 25.1875 L 76.230469 25.15625 L 76.660156 25.113281 C 77.339844 25.054688 78.023438 25.039062 78.707031 25.074219 C 79.027344 25.09375 79.355469 25.121094 79.675781 25.15625 L 79.890625 25.1875 L 79.925781 25.1875 C 80.070312 25.207031 80.21875 25.234375 80.355469 25.261719 C 81.011719 25.382812 81.65625 25.546875 82.292969 25.75 C 82.617188 25.855469 82.941406 25.96875 83.261719 26.089844 L 83.464844 26.171875 L 83.898438 26.367188 C 84.503906 26.652344 85.089844 26.972656 85.652344 27.332031 C 85.945312 27.511719 86.238281 27.707031 86.503906 27.914062 L 86.679688 28.042969 L 86.699219 28.042969 L 87.0625 28.335938 C 87.558594 28.753906 88.027344 29.199219 88.464844 29.675781 C 88.710938 29.941406 88.941406 30.214844 89.167969 30.496094 L 89.222656 30.5625 L 89.269531 30.628906 C 89.375 30.773438 89.480469 30.921875 89.578125 31.070312 C 89.679688 31.234375 89.808594 31.375 89.964844 31.488281 C 90.117188 31.605469 90.289062 31.6875 90.476562 31.734375 C 90.664062 31.785156 90.851562 31.796875 91.042969 31.773438 C 91.234375 31.746094 91.414062 31.6875 91.582031 31.59375 C 91.914062 31.40625 92.132812 31.125 92.234375 30.757812 C 92.34375 30.667969 92.429688 30.558594 92.5 30.4375 C 93 29.542969 93.558594 28.683594 94.175781 27.867188 L 94.207031 27.824219 L 94.300781 27.710938 L 94.527344 27.417969 C 94.695312 27.214844 94.863281 27.019531 95.035156 26.832031 C 95.378906 26.445312 95.738281 26.066406 96.105469 25.703125 C 96.472656 25.34375 96.855469 24.988281 97.25 24.648438 C 97.460938 24.46875 97.667969 24.289062 97.886719 24.117188 L 98.144531 23.910156 L 98.246094 23.832031 C 99.09375 23.191406 99.980469 22.605469 100.902344 22.078125 C 101.355469 21.820312 101.816406 21.578125 102.285156 21.347656 C 102.535156 21.222656 102.785156 21.105469 103.039062 20.988281 L 103.375 20.84375 L 103.398438 20.84375 L 103.503906 20.800781 C 105.449219 20 107.457031 19.449219 109.535156 19.148438 C 109.558594 19.148438 109.875 19.109375 109.667969 19.128906 L 109.71875 19.128906 L 110.082031 19.089844 C 110.339844 19.0625 110.597656 19.039062 110.859375 19.019531 C 111.378906 18.980469 111.898438 18.957031 112.421875 18.949219 C 113.464844 18.945312 114.503906 19.003906 115.542969 19.125 C 115.582031 19.136719 115.621094 19.140625 115.660156 19.144531 L 115.726562 19.144531 L 116.136719 19.207031 C 116.378906 19.25 116.617188 19.296875 116.855469 19.34375 C 117.371094 19.449219 117.882812 19.566406 118.390625 19.707031 C 118.894531 19.847656 119.394531 20 119.890625 20.171875 C 120.15625 20.265625 120.417969 20.359375 120.675781 20.464844 L 121.066406 20.617188 C 121.117188 20.636719 121.445312 20.777344 121.296875 20.714844 L 121.394531 20.753906 L 121.539062 20.820312 L 121.871094 20.972656 C 122.109375 21.082031 122.34375 21.195312 122.574219 21.3125 C 123.042969 21.550781 123.503906 21.796875 123.960938 22.058594 C 124.882812 22.597656 125.765625 23.1875 126.617188 23.832031 L 126.761719 23.941406 L 127.054688 24.1875 C 127.242188 24.339844 127.433594 24.496094 127.617188 24.65625 C 128.019531 25 128.40625 25.351562 128.789062 25.71875 C 129.558594 26.460938 130.285156 27.246094 130.964844 28.074219 C 131.066406 28.195312 131.164062 28.320312 131.257812 28.441406 C 131.292969 28.484375 131.527344 28.792969 131.402344 28.625 L 131.542969 28.8125 C 131.617188 28.910156 131.691406 29.007812 131.761719 29.105469 C 132.078125 29.546875 132.386719 29.996094 132.679688 30.453125 C 133.261719 31.347656 133.789062 32.269531 134.257812 33.226562 C 134.378906 33.480469 134.5 33.734375 134.613281 33.988281 C 134.660156 34.09375 134.707031 34.195312 134.75 34.300781 C 134.765625 34.339844 134.78125 34.378906 134.796875 34.410156 C 135 34.914062 135.191406 35.425781 135.363281 35.941406 C 135.707031 36.96875 135.988281 38.015625 136.195312 39.078125 C 136.257812 39.394531 136.3125 39.71875 136.367188 40.035156 C 136.394531 40.175781 136.417969 40.316406 136.429688 40.460938 C 136.429688 40.101562 136.445312 40.601562 136.453125 40.675781 C 136.523438 41.28125 136.574219 41.894531 136.605469 42.503906 C 136.65625 43.722656 136.625 44.945312 136.503906 46.160156 L 136.441406 46.707031 C 136.441406 46.746094 136.441406 46.785156 136.441406 46.824219 L 136.441406 46.859375 C 136.398438 47.152344 136.347656 47.464844 136.292969 47.761719 C 136.183594 48.359375 136.050781 48.953125 135.894531 49.539062 C 135.734375 50.128906 135.554688 50.710938 135.355469 51.277344 C 135.246094 51.570312 135.132812 51.886719 135.007812 52.183594 L 134.957031 52.308594 C 134.957031 52.308594 134.957031 52.332031 134.957031 52.339844 C 134.890625 52.484375 134.824219 52.632812 134.757812 52.78125 C 134.257812 53.867188 133.664062 54.902344 132.980469 55.886719 C 132.882812 56.023438 132.785156 56.160156 132.6875 56.292969 L 132.605469 56.40625 C 132.457031 56.617188 132.285156 56.8125 132.121094 57.007812 C 131.746094 57.449219 131.351562 57.882812 130.949219 58.28125 C 130.550781 58.675781 130.136719 59.050781 129.707031 59.410156 L 129.316406 59.722656 L 129.222656 59.792969 C 129.011719 59.953125 128.804688 60.105469 128.589844 60.253906 C 127.652344 60.898438 126.667969 61.460938 125.632812 61.933594 C 125.542969 61.972656 125.449219 62.03125 125.339844 62.074219 C 125.3125 62.078125 125.285156 62.085938 125.257812 62.09375 L 125.054688 62.179688 C 124.808594 62.273438 124.566406 62.363281 124.320312 62.445312 C 123.796875 62.625 123.265625 62.78125 122.726562 62.914062 C 122.433594 62.984375 122.144531 63.046875 121.851562 63.101562 C 121.707031 63.128906 121.558594 63.152344 121.414062 63.179688 L 121.167969 63.214844 L 121.035156 63.230469 L 120.867188 63.25 L 120.480469 63.285156 C 120.203125 63.308594 119.925781 63.320312 119.648438 63.332031 C 119.105469 63.347656 118.566406 63.332031 118.023438 63.292969 L 117.550781 63.246094 C 117.492188 63.246094 117.097656 63.183594 117.324219 63.222656 L 117.101562 63.183594 L 116.683594 63.109375 C 115.640625 62.902344 114.628906 62.597656 113.644531 62.203125 L 113.449219 62.117188 L 113.113281 61.960938 C 112.890625 61.855469 112.667969 61.738281 112.453125 61.621094 C 111.96875 61.363281 111.5 61.082031 111.046875 60.773438 C 110.824219 60.628906 110.609375 60.480469 110.394531 60.316406 L 110.367188 60.292969 L 110.277344 60.222656 L 109.984375 59.988281 C 109.582031 59.648438 109.191406 59.289062 108.8125 58.910156 C 108.617188 58.710938 108.425781 58.503906 108.230469 58.292969 C 108.089844 58.089844 107.933594 57.894531 107.765625 57.710938 L 107.742188 57.6875 L 107.644531 57.550781 C 107.570312 57.453125 107.5 57.351562 107.433594 57.257812 C 107.285156 57.042969 107.140625 56.824219 107.007812 56.597656 C 106.734375 56.148438 106.488281 55.683594 106.269531 55.207031 C 106.25 55.160156 106.226562 55.113281 106.203125 55.066406 C 106.171875 54.929688 106.121094 54.800781 106.050781 54.679688 C 105.972656 54.453125 105.890625 54.230469 105.820312 53.996094 C 105.671875 53.511719 105.550781 53.015625 105.464844 52.515625 C 105.445312 52.402344 105.425781 52.285156 105.40625 52.167969 L 105.40625 52.074219 C 105.378906 51.832031 105.359375 51.585938 105.34375 51.339844 C 105.316406 50.847656 105.316406 50.355469 105.34375 49.863281 C 105.359375 49.601562 105.378906 49.339844 105.410156 49.078125 C 105.410156 49.046875 105.410156 49.023438 105.410156 48.996094 C 105.433594 48.878906 105.445312 48.753906 105.464844 48.636719 C 105.632812 47.660156 105.902344 46.710938 106.273438 45.792969 C 106.289062 45.75 106.390625 45.527344 106.328125 45.660156 L 106.476562 45.332031 C 106.574219 45.125 106.679688 44.917969 106.789062 44.714844 C 107.03125 44.269531 107.292969 43.839844 107.582031 43.425781 C 107.65625 43.316406 107.730469 43.210938 107.808594 43.105469 L 107.847656 43.050781 C 108.003906 42.863281 108.140625 42.675781 108.316406 42.492188 C 108.640625 42.132812 108.988281 41.789062 109.351562 41.46875 C 109.460938 41.371094 109.570312 41.277344 109.683594 41.175781 L 109.761719 41.117188 C 109.953125 40.984375 110.136719 40.839844 110.347656 40.710938 C 110.757812 40.445312 111.183594 40.203125 111.625 39.988281 C 112.359375 39.628906 112.503906 38.644531 112.148438 37.988281 C 111.761719 37.253906 110.835938 37.128906 110.148438 37.460938 C 109.152344 37.960938 108.234375 38.578125 107.394531 39.3125 C 104.0625 42.171875 102.246094 46.746094 102.394531 51.105469 C 102.570312 55.929688 105.203125 60.171875 109.054688 62.972656 C 110.035156 63.675781 111.078125 64.269531 112.179688 64.753906 C 113.28125 65.242188 114.421875 65.609375 115.601562 65.863281 C 116.78125 66.113281 117.972656 66.242188 119.175781 66.25 C 120.382812 66.253906 121.574219 66.140625 122.757812 65.898438 C 127.085938 65.039062 130.980469 62.609375 133.902344 59.339844 C 134.054688 59.433594 134.195312 59.53125 134.351562 59.632812 C 134.425781 59.679688 134.492188 59.730469 134.5625 59.78125 L 134.597656 59.84375 L 134.777344 59.988281 C 134.960938 60.140625 135.140625 60.296875 135.320312 60.460938 C 135.714844 60.820312 136.089844 61.199219 136.441406 61.597656 C 136.535156 61.703125 136.621094 61.808594 136.707031 61.914062 L 136.777344 62.003906 C 136.910156 62.21875 137.0625 62.421875 137.226562 62.617188 C 137.519531 63.0625 137.8125 63.523438 138.082031 63.996094 C 138.351562 64.472656 138.578125 64.929688 138.796875 65.414062 C 138.855469 65.542969 138.914062 65.671875 138.96875 65.800781 L 139.03125 65.945312 C 139.125 66.179688 139.210938 66.414062 139.300781 66.648438 C 139.675781 67.679688 139.984375 68.730469 140.226562 69.800781 C 140.34375 70.328125 140.449219 70.855469 140.539062 71.386719 C 140.585938 71.679688 140.628906 71.949219 140.671875 72.234375 L 140.671875 72.316406 C 140.691406 72.457031 140.707031 72.609375 140.722656 72.738281 C 140.886719 74.042969 140.933594 75.355469 140.867188 76.671875 C 140.851562 76.867188 140.839844 77.066406 140.820312 77.257812 L 140.777344 77.550781 C 140.734375 77.816406 140.6875 78.085938 140.625 78.351562 C 140.546875 78.691406 140.449219 79.027344 140.332031 79.355469 C 140.277344 79.515625 140.21875 79.675781 140.15625 79.835938 L 140.15625 79.851562 L 140.109375 79.957031 C 139.871094 80.476562 139.59375 80.976562 139.277344 81.449219 C 139.183594 81.589844 139.082031 81.730469 138.984375 81.867188 L 138.910156 81.960938 C 138.734375 82.179688 138.546875 82.394531 138.351562 82.601562 C 137.957031 83.019531 137.539062 83.40625 137.097656 83.769531 C 137.023438 83.832031 136.777344 84.019531 136.875 83.949219 L 136.582031 84.171875 C 136.367188 84.324219 136.144531 84.472656 135.917969 84.617188 C 135.394531 84.953125 134.855469 85.257812 134.296875 85.527344 L 133.832031 85.746094 L 133.703125 85.804688 L 133.65625 85.824219 C 133.363281 85.945312 133.070312 86.058594 132.753906 86.160156 C 132.148438 86.363281 131.53125 86.527344 130.90625 86.652344 L 130.339844 86.75 L 130.164062 86.75 C 129.851562 86.785156 129.53125 86.804688 129.214844 86.816406 C 128.898438 86.828125 128.539062 86.816406 128.203125 86.816406 L 127.757812 86.785156 L 127.464844 86.753906 C 126.953125 86.671875 126.445312 86.554688 125.949219 86.398438 C 125.675781 86.324219 125.40625 86.230469 125.148438 86.109375 L 125.039062 86.050781 C 124.90625 85.992188 124.777344 85.929688 124.648438 85.863281 C 124.175781 85.609375 123.722656 85.324219 123.292969 85.007812 L 123.128906 84.871094 C 123.03125 84.789062 122.9375 84.707031 122.835938 84.621094 C 122.652344 84.449219 122.472656 84.273438 122.304688 84.089844 C 122.203125 83.976562 122.105469 83.859375 122.015625 83.742188 L 121.96875 83.683594 C 121.949219 83.664062 121.9375 83.640625 121.933594 83.640625 C 121.777344 83.421875 121.632812 83.199219 121.496094 82.964844 C 121.421875 82.84375 121.355469 82.71875 121.289062 82.589844 C 121.242188 82.457031 121.183594 82.328125 121.109375 82.207031 L 121.074219 82.121094 C 121.035156 82.007812 120.996094 81.894531 120.960938 81.78125 C 120.878906 81.519531 120.8125 81.25 120.757812 80.980469 C 120.757812 80.949219 120.734375 80.859375 120.722656 80.789062 C 120.753906 80.949219 120.703125 80.605469 120.699219 80.550781 C 120.675781 80.273438 120.667969 79.996094 120.675781 79.722656 C 120.675781 79.585938 120.675781 79.449219 120.695312 79.308594 C 120.695312 79.285156 120.695312 79.203125 120.710938 79.128906 C 120.710938 79.238281 120.746094 78.90625 120.761719 78.835938 C 120.777344 78.765625 120.808594 78.601562 120.839844 78.484375 C 120.898438 78.234375 120.972656 77.988281 121.058594 77.746094 C 121.058594 77.722656 121.078125 77.6875 121.089844 77.648438 L 121.121094 77.578125 C 121.175781 77.46875 121.222656 77.363281 121.277344 77.257812 C 121.394531 77.03125 121.523438 76.8125 121.664062 76.601562 L 121.78125 76.433594 C 121.828125 76.367188 121.839844 76.347656 121.839844 76.347656 C 121.882812 76.300781 121.933594 76.257812 121.96875 76.214844 C 122.136719 76.027344 122.320312 75.847656 122.515625 75.679688 L 122.542969 75.65625 C 122.511719 75.695312 122.542969 75.703125 122.644531 75.582031 C 122.734375 75.519531 122.824219 75.457031 122.917969 75.398438 C 123.105469 75.285156 123.300781 75.1875 123.503906 75.089844 L 123.601562 75.050781 C 123.722656 75.007812 123.84375 74.96875 123.964844 74.933594 C 124.179688 74.871094 124.394531 74.816406 124.613281 74.777344 L 124.730469 74.761719 L 125.066406 74.761719 C 125.304688 74.761719 125.542969 74.761719 125.78125 74.761719 L 125.960938 74.761719 C 126.019531 74.761719 126.160156 74.792969 126.191406 74.800781 C 126.421875 74.847656 126.652344 74.90625 126.875 74.980469 L 127.019531 75.03125 C 127.054688 75.066406 127.097656 75.085938 127.148438 75.09375 L 127.304688 75.15625 C 127.515625 75.261719 127.714844 75.378906 127.90625 75.511719 L 127.941406 75.535156 C 127.972656 75.566406 128.007812 75.59375 128.042969 75.617188 C 128.105469 75.675781 128.167969 75.726562 128.226562 75.785156 C 128.398438 75.949219 128.554688 76.125 128.699219 76.3125 C 129.203125 76.957031 130.242188 76.792969 130.769531 76.3125 C 131.050781 76.027344 131.195312 75.683594 131.199219 75.28125 C 131.183594 74.878906 131.039062 74.535156 130.769531 74.242188 C 130.390625 73.78125 129.953125 73.378906 129.460938 73.039062 C 127.554688 71.671875 124.78125 71.449219 122.632812 72.300781 C 122.035156 72.542969 121.480469 72.855469 120.960938 73.234375 C 120.445312 73.613281 119.980469 74.050781 119.574219 74.546875 C 119.164062 75.042969 118.824219 75.582031 118.550781 76.164062 C 118.277344 76.742188 118.078125 77.347656 117.953125 77.980469 C 117.675781 79.25 117.671875 80.519531 117.941406 81.789062 C 118.210938 83.0625 118.726562 84.222656 119.496094 85.269531 C 119.929688 85.851562 120.417969 86.386719 120.957031 86.871094 C 120.824219 87.589844 120.632812 88.289062 120.375 88.972656 C 120.335938 89.070312 120.300781 89.167969 120.257812 89.265625 C 120.257812 89.28125 120.257812 89.296875 120.234375 89.320312 C 120.140625 89.515625 120.054688 89.710938 119.941406 89.902344 C 119.761719 90.261719 119.566406 90.605469 119.359375 90.945312 C 119.160156 91.265625 118.945312 91.578125 118.714844 91.875 L 118.695312 91.894531 C 118.625 91.980469 118.558594 92.066406 118.488281 92.148438 C 118.371094 92.289062 118.246094 92.429688 118.125 92.5625 C 117.875 92.835938 117.613281 93.097656 117.34375 93.347656 C 117.101562 93.625 116.828125 93.863281 116.523438 94.066406 L 116.625 94.015625 C 116.566406 94.042969 116.515625 94.074219 116.460938 94.109375 L 116.191406 94.304688 C 116.035156 94.410156 115.878906 94.515625 115.722656 94.617188 C 115.429688 94.808594 115.109375 94.992188 114.796875 95.15625 C 114.605469 95.261719 114.410156 95.359375 114.214844 95.449219 C 114.105469 95.503906 113.992188 95.550781 113.886719 95.597656 C 113.519531 95.742188 113.152344 95.890625 112.777344 96.003906 C 112.011719 96.238281 111.230469 96.417969 110.4375 96.539062 L 110.214844 96.566406 L 109.972656 96.589844 C 109.769531 96.609375 109.566406 96.621094 109.363281 96.632812 C 108.957031 96.65625 108.550781 96.660156 108.144531 96.648438 C 107.738281 96.636719 107.292969 96.609375 106.867188 96.5625 L 106.644531 96.535156 L 106.59375 96.535156 C 106.394531 96.5 106.195312 96.46875 106.007812 96.429688 C 105.441406 96.316406 104.882812 96.171875 104.335938 95.992188 C 104.367188 95.875 104.394531 95.75 104.421875 95.632812 C 104.921875 93.148438 104.515625 90.53125 102.992188 88.46875 C 101.472656 86.402344 99.285156 84.984375 96.714844 84.910156 C 94.082031 84.828125 91.398438 86.445312 90.625 89.035156 C 90.570312 89.222656 90.558594 89.410156 90.582031 89.605469 C 90.605469 89.796875 90.664062 89.976562 90.761719 90.144531 C 90.855469 90.316406 90.980469 90.457031 91.132812 90.578125 C 91.289062 90.695312 91.457031 90.78125 91.644531 90.835938 C 91.832031 90.886719 92.019531 90.898438 92.214844 90.875 C 92.40625 90.851562 92.585938 90.792969 92.753906 90.695312 C 92.925781 90.601562 93.066406 90.476562 93.1875 90.324219 C 93.304688 90.171875 93.390625 90 93.441406 89.8125 C 93.464844 89.75 93.488281 89.683594 93.503906 89.617188 C 93.523438 89.554688 93.523438 89.542969 93.53125 89.53125 C 93.566406 89.46875 93.609375 89.40625 93.632812 89.363281 C 93.683594 89.273438 93.742188 89.191406 93.792969 89.109375 C 93.84375 89.089844 93.871094 89.050781 93.882812 89 C 93.972656 88.902344 94.070312 88.800781 94.175781 88.707031 L 94.328125 88.570312 C 94.445312 88.457031 94.234375 88.636719 94.234375 88.636719 C 94.421875 88.476562 94.625 88.347656 94.847656 88.246094 C 94.910156 88.214844 95.007812 88.179688 95.09375 88.144531 C 95.140625 88.136719 95.175781 88.113281 95.207031 88.078125 L 95.316406 88.039062 C 95.550781 87.964844 95.785156 87.902344 96.027344 87.859375 L 96.203125 87.859375 C 96.308594 87.859375 96.410156 87.859375 96.515625 87.859375 C 96.75 87.859375 96.984375 87.902344 97.222656 87.902344 L 97.160156 87.902344 C 97.058594 87.886719 96.914062 87.902344 97.160156 87.902344 L 97.179688 87.902344 C 97.25 87.902344 97.3125 87.925781 97.378906 87.941406 C 97.496094 87.964844 97.605469 87.992188 97.71875 88.027344 C 97.832031 88.058594 97.945312 88.097656 98.054688 88.132812 L 98.144531 88.167969 C 98.183594 88.199219 98.222656 88.222656 98.265625 88.238281 C 98.4375 88.332031 98.636719 88.40625 98.800781 88.5 C 98.964844 88.59375 99.195312 88.753906 99.386719 88.890625 L 99.5 88.984375 C 99.589844 89.0625 99.683594 89.140625 99.769531 89.222656 C 99.945312 89.390625 100.113281 89.5625 100.273438 89.742188 C 100.347656 89.847656 100.429688 89.945312 100.523438 90.035156 L 100.589844 90.128906 C 100.726562 90.328125 100.855469 90.53125 100.976562 90.746094 C 101.070312 90.910156 101.140625 91.136719 101.242188 91.332031 C 101.257812 91.371094 101.28125 91.410156 101.3125 91.441406 L 101.347656 91.542969 C 101.390625 91.65625 101.429688 91.769531 101.464844 91.886719 C 101.542969 92.152344 101.609375 92.417969 101.660156 92.691406 C 101.660156 92.707031 101.660156 92.71875 101.660156 92.734375 C 101.660156 92.875 101.671875 93.015625 101.699219 93.152344 C 101.714844 93.445312 101.714844 93.714844 101.699219 93.996094 C 101.699219 94.125 101.683594 94.257812 101.671875 94.386719 C 101.671875 94.425781 101.671875 94.46875 101.671875 94.503906 C 101.578125 95.035156 101.445312 95.558594 101.277344 96.070312 C 101.226562 96.210938 101.171875 96.363281 101.117188 96.492188 C 101.113281 96.507812 101.109375 96.523438 101.105469 96.539062 C 101.089844 96.558594 101.078125 96.582031 101.066406 96.609375 C 100.953125 96.847656 100.835938 97.085938 100.707031 97.316406 C 100.578125 97.546875 100.414062 97.808594 100.265625 98.042969 C 100.1875 98.15625 100.113281 98.261719 100.035156 98.371094 L 99.902344 98.554688 C 99.574219 98.964844 99.222656 99.355469 98.84375 99.722656 C 98.636719 99.921875 98.425781 100.113281 98.203125 100.308594 L 98.027344 100.453125 C 98.007812 100.46875 97.988281 100.484375 97.972656 100.503906 C 97.910156 100.554688 97.824219 100.597656 97.769531 100.636719 C 97.261719 100.992188 96.738281 101.3125 96.191406 101.601562 C 95.914062 101.746094 95.636719 101.878906 95.355469 102.007812 L 95.097656 102.117188 L 94.804688 102.238281 C 94.246094 102.453125 93.675781 102.636719 93.09375 102.796875 C 92.515625 102.957031 91.925781 103.089844 91.339844 103.210938 C 91.03125 103.269531 90.726562 103.320312 90.417969 103.371094 L 90.035156 103.425781 L 89.820312 103.457031 C 87.339844 103.757812 84.859375 103.789062 82.375 103.539062 L 81.867188 103.484375 L 81.605469 103.449219 C 81.332031 103.414062 81.066406 103.375 80.796875 103.328125 C 80.171875 103.222656 79.542969 103.097656 78.921875 102.953125 C 77.722656 102.671875 76.546875 102.308594 75.394531 101.863281 C 75.234375 101.800781 75.082031 101.738281 74.921875 101.675781 L 74.839844 101.640625 L 74.804688 101.640625 L 74.742188 101.613281 C 74.472656 101.496094 74.203125 101.371094 73.933594 101.242188 C 73.402344 100.984375 72.882812 100.710938 72.371094 100.417969 C 71.902344 100.148438 71.449219 99.859375 71.003906 99.554688 C 70.773438 99.398438 70.542969 99.238281 70.320312 99.074219 C 70.195312 98.992188 70.078125 98.902344 69.964844 98.808594 L 69.90625 98.761719 C 69.046875 98.074219 68.246094 97.328125 67.5 96.523438 C 67.132812 96.128906 66.789062 95.714844 66.449219 95.300781 L 66.425781 95.269531 L 66.335938 95.15625 L 66.105469 94.84375 C 65.957031 94.632812 65.8125 94.421875 65.664062 94.207031 C 65.0625 93.296875 64.539062 92.34375 64.097656 91.347656 L 64.066406 91.289062 C 64.054688 91.253906 64.042969 91.222656 64.027344 91.191406 L 63.886719 90.832031 C 63.796875 90.589844 63.707031 90.347656 63.625 90.101562 C 63.457031 89.59375 63.3125 89.078125 63.191406 88.554688 C 63.144531 88.359375 63.058594 88.1875 62.933594 88.03125 C 62.859375 87.839844 62.75 87.667969 62.613281 87.515625 C 62.109375 86.972656 61.027344 86.933594 60.542969 87.515625 C 60.015625 88.160156 59.433594 88.746094 58.789062 89.273438 L 58.683594 89.355469 L 58.488281 89.5 C 58.335938 89.613281 58.175781 89.722656 58.011719 89.828125 C 57.675781 90.050781 57.328125 90.253906 56.972656 90.441406 C 56.785156 90.542969 56.59375 90.636719 56.40625 90.734375 L 56.195312 90.832031 C 55.886719 90.964844 55.570312 91.082031 55.25 91.179688 C 54.882812 91.296875 54.511719 91.398438 54.136719 91.472656 C 53.804688 91.574219 53.464844 91.636719 53.117188 91.660156 L 52.992188 91.660156 L 52.761719 91.683594 C 52.570312 91.695312 52.378906 91.707031 52.175781 91.714844 C 51.832031 91.714844 51.484375 91.714844 51.144531 91.714844 C 50.957031 91.714844 50.765625 91.691406 50.578125 91.671875 L 50.316406 91.644531 L 50.292969 91.644531 C 49.960938 91.582031 49.628906 91.523438 49.296875 91.445312 C 48.964844 91.367188 48.605469 91.265625 48.265625 91.152344 C 48.105469 91.101562 47.941406 91.042969 47.785156 90.984375 L 47.574219 90.902344 L 47.378906 90.820312 L 47.246094 90.761719 L 46.992188 90.636719 L 46.589844 90.433594 C 46.296875 90.273438 46.003906 90.101562 45.710938 89.917969 C 45.535156 89.808594 45.363281 89.691406 45.195312 89.570312 C 45.121094 89.519531 44.691406 89.242188 44.992188 89.429688 C 44.714844 89.234375 44.457031 89.011719 44.214844 88.769531 C 43.941406 88.515625 43.675781 88.246094 43.421875 87.964844 C 43.320312 87.855469 43.226562 87.738281 43.132812 87.625 C 43.039062 87.511719 43.015625 87.480469 42.957031 87.410156 L 42.9375 87.386719 C 42.445312 86.734375 41.707031 86.457031 40.9375 86.863281 C 40.695312 87 40.507812 87.195312 40.386719 87.445312 C 39.988281 87.679688 39.585938 87.910156 39.175781 88.125 C 38.542969 88.460938 37.894531 88.773438 37.234375 89.0625 L 36.972656 89.175781 L 36.925781 89.191406 L 36.480469 89.371094 C 36.148438 89.503906 35.808594 89.628906 35.472656 89.75 C 34.121094 90.203125 32.746094 90.570312 31.347656 90.847656 C 30.640625 90.996094 29.933594 91.125 29.21875 91.234375 L 28.863281 91.289062 L 28.832031 91.289062 C 28.671875 91.3125 28.511719 91.328125 28.355469 91.347656 C 28.015625 91.382812 27.675781 91.417969 27.335938 91.449219 C 25.867188 91.578125 24.398438 91.625 22.921875 91.585938 C 21.460938 91.550781 20.015625 91.425781 18.566406 91.253906 L 18.472656 91.253906 L 18.179688 91.207031 L 17.703125 91.136719 C 17.34375 91.078125 16.980469 91.015625 16.625 90.949219 C 15.910156 90.820312 15.195312 90.660156 14.488281 90.5 C 13.039062 90.167969 11.613281 89.75 10.214844 89.25 C 9.855469 89.125 9.503906 88.984375 9.152344 88.84375 L 9.121094 88.832031 L 9.09375 88.832031 L 8.867188 88.730469 L 8.351562 88.492188 C 7.671875 88.164062 7.015625 87.796875 6.382812 87.382812 C 6.207031 87.269531 6.035156 87.148438 5.863281 87.027344 L 5.664062 86.875 L 5.632812 86.855469 L 5.617188 86.839844 C 5.367188 86.628906 5.117188 86.425781 4.878906 86.203125 C 4.640625 85.980469 4.359375 85.695312 4.117188 85.425781 C 4 85.296875 3.886719 85.164062 3.777344 85.035156 L 3.585938 84.792969 C 3.195312 84.269531 2.847656 83.71875 2.539062 83.140625 C 2.449219 82.976562 2.363281 82.800781 2.28125 82.628906 C 2.230469 82.519531 2.1875 82.429688 2.148438 82.34375 Z M 2.148438 82.34375 " fill-opacity="1" fill-rule="nonzero"/></g><path fill="#262755" d="M 63.957031 91.078125 C 63.964844 91.117188 63.976562 91.152344 63.996094 91.1875 C 63.976562 91.152344 63.964844 91.117188 63.957031 91.078125 Z M 63.957031 91.078125 " fill-opacity="1" fill-rule="nonzero"/><path fill="#262755" d="M 93.46875 89.570312 C 93.457031 89.605469 93.445312 89.640625 93.433594 89.675781 C 93.4375 89.636719 93.449219 89.601562 93.46875 89.570312 Z M 93.46875 89.570312 " fill-opacity="1" fill-rule="nonzero"/><path fill="#262755" d="M 77.675781 38.078125 C 77.675781 38.085938 77.675781 38.09375 77.675781 38.101562 L 77.648438 38.117188 Z M 77.675781 38.078125 " fill-opacity="1" fill-rule="nonzero"/><path fill="#262755" d="M 115.621094 19.144531 C 115.71875 19.144531 115.722656 19.160156 115.6875 19.144531 L 115.582031 19.144531 Z M 115.621094 19.144531 " fill-opacity="1" fill-rule="nonzero"/><path fill="#262755" d="M 13.855469 78.898438 C 13.777344 78.941406 13.75 78.929688 13.769531 78.910156 C 13.804688 78.898438 13.847656 78.886719 13.886719 78.878906 Z M 13.855469 78.898438 " fill-opacity="1" fill-rule="nonzero"/><path fill="#262755" d="M 77.636719 38.121094 L 77.570312 38.179688 C 77.527344 38.199219 77.507812 38.199219 77.636719 38.121094 Z M 77.636719 38.121094 " fill-opacity="1" fill-rule="nonzero"/><path fill="#262755" d="M 12.492188 79.085938 L 12.429688 79.085938 C 12.476562 79.082031 12.523438 79.082031 12.570312 79.085938 C 12.601562 79.085938 12.585938 79.109375 12.492188 79.085938 Z M 12.492188 79.085938 " fill-opacity="1" fill-rule="nonzero"/><path fill="#262755" d="M 100.460938 89.972656 L 100.476562 89.996094 C 100.421875 89.941406 100.332031 89.800781 100.460938 89.972656 Z M 100.460938 89.972656 " fill-opacity="1" fill-rule="nonzero"/><path fill="#262755" d="M 95.128906 88.089844 L 95.15625 88.089844 C 95.125 88.117188 95.089844 88.136719 95.050781 88.152344 C 95.039062 88.132812 95.054688 88.113281 95.128906 88.089844 Z M 95.128906 88.089844 " fill-opacity="1" fill-rule="nonzero"/><path fill="#262755" d="M 95.183594 88.058594 L 95.164062 88.074219 C 95.171875 88.070312 95.179688 88.066406 95.183594 88.058594 Z M 95.183594 88.058594 " fill-opacity="1" fill-rule="nonzero"/><path fill="#262755" d="M 98.085938 88.125 L 98.113281 88.144531 Z M 98.085938 88.125 " fill-opacity="1" fill-rule="nonzero"/><path fill="#262755" d="M 128.058594 75.640625 C 128.058594 75.640625 128.058594 75.640625 128.042969 75.640625 L 127.988281 75.589844 Z M 128.058594 75.640625 " fill-opacity="1" fill-rule="nonzero"/><path fill="#262755" d="M 93.789062 89.058594 C 93.828125 89 93.839844 88.988281 93.84375 88.996094 C 93.820312 89.035156 93.792969 89.066406 93.761719 89.101562 Z M 93.789062 89.058594 " fill-opacity="1" fill-rule="nonzero"/><path fill="#262755" d="M 74.753906 101.574219 L 74.789062 101.574219 L 74.867188 101.609375 Z M 74.753906 101.574219 " fill-opacity="1" fill-rule="nonzero"/><path fill="#262755" d="M 98.15625 88.15625 C 98.230469 88.183594 98.261719 88.226562 98.226562 88.210938 C 98.1875 88.195312 98.148438 88.167969 98.113281 88.144531 Z M 98.15625 88.15625 " fill-opacity="1" fill-rule="nonzero"/><path fill="#262755" d="M 101.253906 91.363281 C 101.257812 91.375 101.265625 91.390625 101.265625 91.40625 C 101.242188 91.371094 101.21875 91.335938 101.199219 91.300781 C 101.191406 91.265625 101.226562 91.28125 101.253906 91.363281 Z M 101.253906 91.363281 " fill-opacity="1" fill-rule="nonzero"/><path fill="#262755" d="M 127.011719 75.023438 C 127.011719 75.023438 127.011719 75.023438 127.03125 75.042969 C 127.019531 75.042969 127.011719 75.035156 127.011719 75.023438 Z M 127.011719 75.023438 " fill-opacity="1" fill-rule="nonzero"/><path fill="#262755" d="M 127.984375 75.574219 L 127.941406 75.542969 C 127.914062 75.515625 127.910156 75.507812 127.984375 75.574219 Z M 127.984375 75.574219 " fill-opacity="1" fill-rule="nonzero"/><path fill="#262755" d="M 122.003906 83.757812 C 122.003906 83.773438 122.023438 83.785156 122.003906 83.785156 L 121.957031 83.71875 L 121.976562 83.742188 Z M 122.003906 83.757812 " fill-opacity="1" fill-rule="nonzero"/><path fill="#262755" d="M 121.957031 83.699219 L 121.957031 83.71875 C 121.917969 83.65625 121.929688 83.667969 121.957031 83.699219 Z M 121.957031 83.699219 " fill-opacity="1" fill-rule="nonzero"/><path fill="#262755" d="M 122.589844 75.621094 L 122.609375 75.621094 L 122.535156 75.679688 C 122.550781 75.660156 122.570312 75.640625 122.589844 75.621094 Z M 122.589844 75.621094 " fill-opacity="1" fill-rule="nonzero"/><path fill="#262755" d="M 107.757812 57.734375 L 107.734375 57.707031 L 107.757812 57.726562 C 107.808594 57.796875 107.847656 57.859375 107.757812 57.734375 Z M 107.757812 57.734375 " fill-opacity="1" fill-rule="nonzero"/><path fill="#262755" d="M 127.097656 75.070312 C 127.183594 75.09375 127.179688 75.105469 127.148438 75.101562 C 127.105469 75.085938 127.066406 75.066406 127.03125 75.042969 Z M 127.097656 75.070312 " fill-opacity="1" fill-rule="nonzero"/><path fill="#262755" d="M 122.660156 75.5625 L 122.632812 75.59375 L 122.609375 75.609375 C 122.628906 75.597656 122.644531 75.582031 122.660156 75.5625 Z M 122.660156 75.5625 " fill-opacity="1" fill-rule="nonzero"/><path fill="#262755" d="M 6.367188 70.5 C 6.304688 70.53125 6.09375 70.605469 6.320312 70.515625 Z M 6.367188 70.5 " fill-opacity="1" fill-rule="nonzero"/><path fill="#262755" d="M 121.140625 77.523438 C 121.121094 77.554688 121.105469 77.589844 121.089844 77.625 C 121.101562 77.585938 121.117188 77.554688 121.140625 77.523438 Z M 121.140625 77.523438 " fill-opacity="1" fill-rule="nonzero"/><path fill="#262755" d="M 78.027344 37.90625 C 78.105469 37.867188 78.082031 37.882812 78.027344 37.90625 Z M 78.027344 37.90625 " fill-opacity="1" fill-rule="nonzero"/><path fill="#262755" d="M 42.722656 55.710938 L 42.761719 55.8125 C 42.746094 55.777344 42.734375 55.746094 42.722656 55.710938 Z M 42.722656 55.710938 " fill-opacity="1" fill-rule="nonzero"/><path fill="#262755" d="M 77.304688 38.4375 C 77.304688 38.457031 77.28125 38.472656 77.277344 38.46875 Z M 77.304688 38.4375 " fill-opacity="1" fill-rule="nonzero"/><path fill="#262755" d="M 11.25 78.601562 L 11.320312 78.644531 C 11.292969 78.636719 11.269531 78.625 11.25 78.601562 Z M 11.25 78.601562 " fill-opacity="1" fill-rule="nonzero"/><path fill="#262755" d="M 121.816406 76.375 C 121.785156 76.414062 121.753906 76.457031 121.730469 76.5 C 121.75 76.453125 121.78125 76.414062 121.816406 76.375 Z M 121.816406 76.375 " fill-opacity="1" fill-rule="nonzero"/><path fill="#262755" d="M 51.75 39.695312 L 51.796875 39.695312 C 52.050781 39.644531 51.820312 39.6875 51.75 39.695312 Z M 51.75 39.695312 " fill-opacity="1" fill-rule="nonzero"/><path fill="#262755" d="M 12.078125 70.535156 L 12.128906 70.554688 C 12.359375 70.644531 12.128906 70.566406 12.078125 70.535156 Z M 12.078125 70.535156 " fill-opacity="1" fill-rule="nonzero"/><g fill="#262755" fill-opacity="1"><g transform="translate(153.785869, 73.151364)"><g><path d="M 3.984375 -35.921875 L 16 -35.921875 L 27.28125 -10.25 L 27.59375 -10.25 L 27.59375 -35.921875 L 35.296875 -35.921875 L 35.296875 0 L 24.484375 0 L 12.0625 -27.328125 L 11.75 -27.328125 L 11.75 0 L 3.984375 0 Z M 3.984375 -35.921875 "/></g></g></g><g fill="#262755" fill-opacity="1"><g transform="translate(193.06868, 73.151364)"><g><path d="M 3.984375 -35.921875 L 11.859375 -35.921875 L 11.859375 0 L 3.984375 0 Z M 3.984375 -35.921875 "/></g></g></g><g fill="#262755" fill-opacity="1"><g transform="translate(208.906025, 73.151364)"><g><path d="M 3.984375 -35.921875 L 16.765625 -35.921875 L 22.71875 -15.6875 L 23.03125 -15.6875 L 29.25 -35.921875 L 41.671875 -35.921875 L 41.671875 0 L 33.90625 0 L 33.90625 -28.265625 L 33.59375 -28.265625 L 26.65625 -6.78125 L 18.796875 -6.78125 L 11.953125 -28.265625 L 11.640625 -28.265625 L 11.640625 0 L 3.984375 0 Z M 3.984375 -35.921875 "/></g></g></g><g fill="#262755" fill-opacity="1"><g transform="translate(254.554833, 73.151364)"><g><path d="M 3.984375 -35.921875 L 16.09375 -35.921875 C 18.71875 -35.921875 20.890625 -35.722656 22.609375 -35.328125 C 24.335938 -34.929688 25.710938 -34.328125 26.734375 -33.515625 C 27.753906 -32.703125 28.46875 -31.691406 28.875 -30.484375 C 29.289062 -29.273438 29.5 -27.863281 29.5 -26.25 C 29.5 -24.382812 29.117188 -22.828125 28.359375 -21.578125 C 27.609375 -20.335938 26.25 -19.441406 24.28125 -18.890625 L 24.28125 -18.6875 C 28.488281 -17.613281 30.59375 -14.835938 30.59375 -10.359375 C 30.59375 -8.734375 30.382812 -7.269531 29.96875 -5.96875 C 29.550781 -4.675781 28.832031 -3.585938 27.8125 -2.703125 C 26.800781 -1.828125 25.429688 -1.15625 23.703125 -0.6875 C 21.984375 -0.226562 19.8125 0 17.1875 0 L 3.984375 0 Z M 14.5 -21.125 C 15.769531 -21.125 16.863281 -21.179688 17.78125 -21.296875 C 18.695312 -21.421875 19.445312 -21.640625 20.03125 -21.953125 C 20.613281 -22.265625 21.039062 -22.695312 21.3125 -23.25 C 21.59375 -23.800781 21.734375 -24.523438 21.734375 -25.421875 C 21.734375 -26.347656 21.59375 -27.085938 21.3125 -27.640625 C 21.039062 -28.191406 20.617188 -28.625 20.046875 -28.9375 C 19.484375 -29.25 18.734375 -29.445312 17.796875 -29.53125 C 16.867188 -29.613281 15.769531 -29.65625 14.5 -29.65625 L 11.859375 -29.65625 L 11.859375 -21.125 Z M 15.484375 -6.3125 C 16.859375 -6.3125 18.003906 -6.378906 18.921875 -6.515625 C 19.835938 -6.660156 20.570312 -6.894531 21.125 -7.21875 C 21.675781 -7.550781 22.0625 -8.007812 22.28125 -8.59375 C 22.507812 -9.175781 22.625 -9.9375 22.625 -10.875 C 22.625 -11.695312 22.507812 -12.398438 22.28125 -12.984375 C 22.0625 -13.578125 21.679688 -14.050781 21.140625 -14.40625 C 20.609375 -14.769531 19.875 -15.03125 18.9375 -15.1875 C 18.007812 -15.34375 16.859375 -15.421875 15.484375 -15.421875 L 11.859375 -15.421875 L 11.859375 -6.3125 Z M 15.484375 -6.3125 "/></g></g></g><g fill="#262755" fill-opacity="1"><g transform="translate(288.092727, 73.151364)"><g><path d="M 18.84375 0.515625 C 16.425781 0.515625 14.285156 0.3125 12.421875 -0.09375 C 10.554688 -0.507812 8.984375 -1.191406 7.703125 -2.140625 C 6.429688 -3.097656 5.46875 -4.367188 4.8125 -5.953125 C 4.15625 -7.535156 3.828125 -9.519531 3.828125 -11.90625 L 3.828125 -35.921875 L 11.703125 -35.921875 L 11.703125 -12.78125 C 11.703125 -11.71875 11.800781 -10.769531 12 -9.9375 C 12.207031 -9.113281 12.585938 -8.425781 13.140625 -7.875 C 13.703125 -7.320312 14.445312 -6.90625 15.375 -6.625 C 16.300781 -6.351562 17.472656 -6.21875 18.890625 -6.21875 C 20.378906 -6.21875 21.585938 -6.367188 22.515625 -6.671875 C 23.453125 -6.984375 24.1875 -7.425781 24.71875 -8 C 25.25 -8.570312 25.617188 -9.257812 25.828125 -10.0625 C 26.035156 -10.875 26.140625 -11.78125 26.140625 -12.78125 L 26.140625 -35.921875 L 33.953125 -35.921875 L 33.953125 -11.90625 C 33.953125 -9.695312 33.613281 -7.804688 32.9375 -6.234375 C 32.269531 -4.660156 31.289062 -3.375 30 -2.375 C 28.707031 -1.375 27.128906 -0.640625 25.265625 -0.171875 C 23.398438 0.285156 21.257812 0.515625 18.84375 0.515625 Z M 18.84375 0.515625 "/></g></g></g><g fill="#262755" fill-opacity="1"><g transform="translate(325.874618, 73.151364)"><g><path d="M 13.296875 0.515625 C 11.191406 0.515625 9.195312 0.375 7.3125 0.09375 C 5.4375 -0.175781 3.945312 -0.46875 2.84375 -0.78125 L 2.84375 -7.65625 C 3.394531 -7.445312 4.066406 -7.253906 4.859375 -7.078125 C 5.660156 -6.910156 6.507812 -6.765625 7.40625 -6.640625 C 8.300781 -6.523438 9.222656 -6.425781 10.171875 -6.34375 C 11.117188 -6.257812 12.0625 -6.21875 13 -6.21875 C 14.164062 -6.21875 15.15625 -6.285156 15.96875 -6.421875 C 16.78125 -6.554688 17.4375 -6.796875 17.9375 -7.140625 C 18.4375 -7.484375 18.789062 -7.929688 19 -8.484375 C 19.207031 -9.035156 19.3125 -9.710938 19.3125 -10.515625 C 19.3125 -11.203125 19.222656 -11.785156 19.046875 -12.265625 C 18.878906 -12.753906 18.5625 -13.1875 18.09375 -13.5625 C 17.625 -13.9375 16.96875 -14.28125 16.125 -14.59375 C 15.28125 -14.90625 14.164062 -15.234375 12.78125 -15.578125 C 10.851562 -16.023438 9.257812 -16.515625 8 -17.046875 C 6.738281 -17.585938 5.726562 -18.242188 4.96875 -19.015625 C 4.207031 -19.796875 3.671875 -20.738281 3.359375 -21.84375 C 3.054688 -22.945312 2.90625 -24.3125 2.90625 -25.9375 C 2.90625 -29.726562 4.050781 -32.425781 6.34375 -34.03125 C 8.632812 -35.632812 11.867188 -36.4375 16.046875 -36.4375 C 18.078125 -36.4375 19.878906 -36.304688 21.453125 -36.046875 C 23.023438 -35.796875 24.296875 -35.5 25.265625 -35.15625 L 25.265625 -28.671875 C 24.816406 -28.816406 24.242188 -28.960938 23.546875 -29.109375 C 22.859375 -29.265625 22.097656 -29.410156 21.265625 -29.546875 C 20.441406 -29.691406 19.609375 -29.796875 18.765625 -29.859375 C 17.921875 -29.929688 17.117188 -29.96875 16.359375 -29.96875 C 14.316406 -29.96875 12.835938 -29.707031 11.921875 -29.1875 C 11.015625 -28.675781 10.5625 -27.660156 10.5625 -26.140625 C 10.5625 -25.554688 10.628906 -25.054688 10.765625 -24.640625 C 10.898438 -24.222656 11.179688 -23.847656 11.609375 -23.515625 C 12.046875 -23.191406 12.671875 -22.890625 13.484375 -22.609375 C 14.296875 -22.335938 15.359375 -22.046875 16.671875 -21.734375 C 18.804688 -21.222656 20.554688 -20.644531 21.921875 -20 C 23.285156 -19.363281 24.351562 -18.601562 25.125 -17.71875 C 25.90625 -16.84375 26.429688 -15.8125 26.703125 -14.625 C 26.984375 -13.4375 27.125 -11.992188 27.125 -10.296875 C 27.125 -6.773438 26.050781 -4.09375 23.90625 -2.25 C 21.769531 -0.40625 18.234375 0.515625 13.296875 0.515625 Z M 13.296875 0.515625 "/></g></g></g><g fill="#262755" fill-opacity="1"><g transform="translate(175.215736, 98.984955)"><g><path d="M 1.015625 0 L 1.015625 -1.859375 L 5.78125 -1.859375 C 6.539062 -1.859375 7.046875 -1.929688 7.296875 -2.078125 C 7.648438 -2.296875 7.828125 -2.625 7.828125 -3.0625 C 7.828125 -3.570312 7.617188 -3.941406 7.203125 -4.171875 C 6.960938 -4.304688 6.578125 -4.375 6.046875 -4.375 L 4.109375 -4.375 C 2.929688 -4.375 2.082031 -4.585938 1.5625 -5.015625 C 1.238281 -5.285156 0.984375 -5.625 0.796875 -6.03125 C 0.617188 -6.4375 0.53125 -6.875 0.53125 -7.34375 C 0.53125 -8.0625 0.742188 -8.722656 1.171875 -9.328125 C 1.585938 -9.910156 2.253906 -10.253906 3.171875 -10.359375 C 3.484375 -10.390625 3.945312 -10.40625 4.5625 -10.40625 L 9.71875 -10.40625 L 9.71875 -8.546875 L 5.0625 -8.546875 C 4.363281 -8.535156 3.898438 -8.503906 3.671875 -8.453125 C 3.203125 -8.335938 2.96875 -7.988281 2.96875 -7.40625 C 2.96875 -6.90625 3.164062 -6.570312 3.5625 -6.40625 C 3.820312 -6.28125 4.257812 -6.21875 4.875 -6.21875 L 6.546875 -6.21875 C 7.390625 -6.21875 8.019531 -6.144531 8.4375 -6 C 9.175781 -5.75 9.6875 -5.3125 9.96875 -4.6875 C 10.1875 -4.1875 10.296875 -3.648438 10.296875 -3.078125 C 10.296875 -2.441406 10.148438 -1.875 9.859375 -1.375 C 9.453125 -0.664062 8.84375 -0.238281 8.03125 -0.09375 C 7.644531 -0.03125 7.050781 0 6.25 0 Z M 1.015625 0 "/></g></g></g><g fill="#262755" fill-opacity="1"><g transform="translate(186.065842, 98.984955)"><g><path d="M 3.375 -8.546875 L 0.0625 -8.546875 L 0.0625 -10.40625 L 9.03125 -10.40625 L 9.03125 -8.546875 L 5.59375 -8.546875 L 5.59375 0 L 3.375 0 Z M 3.375 -8.546875 "/></g></g></g><g fill="#262755" fill-opacity="1"><g transform="translate(195.183056, 98.984955)"><g><path d="M 5.640625 -10.46875 C 6.679688 -10.46875 7.59375 -10.289062 8.375 -9.9375 C 9.300781 -9.507812 9.953125 -8.796875 10.328125 -7.796875 C 10.617188 -7.023438 10.765625 -6.113281 10.765625 -5.0625 C 10.765625 -4 10.585938 -3.078125 10.234375 -2.296875 C 9.785156 -1.367188 9.097656 -0.71875 8.171875 -0.34375 C 7.492188 -0.0703125 6.707031 0.0625 5.8125 0.0625 C 4.632812 0.0625 3.613281 -0.15625 2.75 -0.59375 C 2.019531 -0.957031 1.460938 -1.53125 1.078125 -2.3125 C 0.691406 -3.09375 0.5 -4.039062 0.5 -5.15625 C 0.5 -7.132812 0.992188 -8.546875 1.984375 -9.390625 C 2.816406 -10.097656 4.035156 -10.457031 5.640625 -10.46875 Z M 5.65625 -8.71875 C 4.632812 -8.71875 3.90625 -8.390625 3.46875 -7.734375 C 3.113281 -7.210938 2.9375 -6.375 2.9375 -5.21875 C 2.9375 -4 3.15625 -3.101562 3.59375 -2.53125 C 4.03125 -1.96875 4.722656 -1.6875 5.671875 -1.6875 C 6.585938 -1.6875 7.257812 -1.972656 7.6875 -2.546875 C 8.113281 -3.117188 8.328125 -4.003906 8.328125 -5.203125 C 8.328125 -6.296875 8.148438 -7.128906 7.796875 -7.703125 C 7.398438 -8.367188 6.6875 -8.707031 5.65625 -8.71875 Z M 5.65625 -8.71875 "/></g></g></g><g fill="#262755" fill-opacity="1"><g transform="translate(206.454678, 98.984955)"><g><path d="M 3.28125 -3.953125 L 3.28125 0 L 1.0625 0 L 1.0625 -10.40625 L 6.15625 -10.40625 C 7.601562 -10.40625 8.613281 -10.21875 9.1875 -9.84375 C 9.582031 -9.59375 9.882812 -9.257812 10.09375 -8.84375 C 10.3125 -8.4375 10.421875 -7.992188 10.421875 -7.515625 C 10.421875 -6.523438 10.171875 -5.757812 9.671875 -5.21875 C 9.359375 -4.894531 8.945312 -4.648438 8.4375 -4.484375 C 8.84375 -4.335938 9.148438 -4.179688 9.359375 -4.015625 C 9.566406 -3.859375 9.753906 -3.625 9.921875 -3.3125 C 10.046875 -3.0625 10.132812 -2.820312 10.1875 -2.59375 C 10.25 -2.363281 10.296875 -2.023438 10.328125 -1.578125 C 10.390625 -0.828125 10.472656 -0.300781 10.578125 0 L 8.09375 0 C 8.019531 -0.238281 7.941406 -0.734375 7.859375 -1.484375 C 7.804688 -2.085938 7.703125 -2.550781 7.546875 -2.875 C 7.390625 -3.195312 7.148438 -3.453125 6.828125 -3.640625 C 6.421875 -3.859375 5.832031 -3.960938 5.0625 -3.953125 Z M 3.28125 -5.8125 L 6.390625 -5.8125 C 6.910156 -5.8125 7.28125 -5.890625 7.5 -6.046875 C 7.820312 -6.273438 7.984375 -6.675781 7.984375 -7.25 C 7.984375 -7.875 7.738281 -8.273438 7.25 -8.453125 C 7.070312 -8.515625 6.785156 -8.546875 6.390625 -8.546875 L 3.28125 -8.546875 Z M 3.28125 -5.8125 "/></g></g></g><g fill="#262755" fill-opacity="1"><g transform="translate(217.601409, 98.984955)"><g><path d="M 0.046875 0 L 4.359375 -10.40625 L 6.90625 -10.40625 L 11.203125 0 L 8.609375 0 L 7.609375 -2.40625 L 3.65625 -2.40625 L 2.640625 0 Z M 5.640625 -7.890625 L 4.15625 -4.265625 L 7.125 -4.265625 Z M 5.640625 -7.890625 "/></g></g></g><g fill="#262755" fill-opacity="1"><g transform="translate(228.873031, 98.984955)"><g><path d="M 4.890625 -6.1875 L 9.984375 -6.1875 L 9.984375 0 L 5.34375 0 C 4.539062 0 3.898438 -0.0546875 3.421875 -0.171875 C 2.953125 -0.296875 2.523438 -0.507812 2.140625 -0.8125 C 1.046875 -1.65625 0.5 -3.109375 0.5 -5.171875 C 0.5 -6.515625 0.757812 -7.628906 1.28125 -8.515625 C 1.664062 -9.171875 2.191406 -9.648438 2.859375 -9.953125 C 3.523438 -10.253906 4.390625 -10.40625 5.453125 -10.40625 L 9.984375 -10.40625 L 9.984375 -8.546875 L 5.703125 -8.546875 C 4.773438 -8.546875 4.101562 -8.34375 3.6875 -7.9375 C 3.1875 -7.46875 2.9375 -6.613281 2.9375 -5.375 C 2.9375 -4.738281 3 -4.164062 3.125 -3.65625 C 3.257812 -3.144531 3.441406 -2.765625 3.671875 -2.515625 C 3.867188 -2.285156 4.140625 -2.117188 4.484375 -2.015625 C 4.835938 -1.910156 5.269531 -1.859375 5.78125 -1.859375 L 7.78125 -1.859375 L 7.78125 -4.328125 L 4.890625 -4.328125 Z M 4.890625 -6.1875 "/></g></g></g><g fill="#262755" fill-opacity="1"><g transform="translate(239.660691, 98.984955)"><g><path d="M 8.859375 -10.40625 L 8.859375 -8.546875 L 5.984375 -8.546875 C 5.234375 -8.546875 4.6875 -8.492188 4.34375 -8.390625 C 4 -8.285156 3.710938 -8.082031 3.484375 -7.78125 C 3.328125 -7.582031 3.21875 -7.378906 3.15625 -7.171875 C 3.101562 -6.960938 3.054688 -6.609375 3.015625 -6.109375 L 8.859375 -6.109375 L 8.859375 -4.25 L 3.015625 -4.25 C 3.097656 -3.351562 3.363281 -2.726562 3.8125 -2.375 C 4.257812 -2.03125 5.019531 -1.859375 6.09375 -1.859375 L 8.859375 -1.859375 L 8.859375 0 L 5.984375 0 C 5.203125 0 4.515625 -0.046875 3.921875 -0.140625 C 2.984375 -0.296875 2.238281 -0.707031 1.6875 -1.375 C 0.894531 -2.332031 0.5 -3.628906 0.5 -5.265625 C 0.5 -7.066406 1.054688 -8.472656 2.171875 -9.484375 C 2.554688 -9.828125 2.960938 -10.066406 3.390625 -10.203125 C 3.828125 -10.335938 4.410156 -10.40625 5.140625 -10.40625 Z M 8.859375 -10.40625 "/></g></g></g><g fill="#262755" fill-opacity="1"><g transform="translate(249.215041, 98.984955)"><g/></g></g><g fill="#262755" fill-opacity="1"><g transform="translate(257.02088, 98.984955)"><g><path d="M 1.015625 0 L 1.015625 -1.859375 L 5.78125 -1.859375 C 6.539062 -1.859375 7.046875 -1.929688 7.296875 -2.078125 C 7.648438 -2.296875 7.828125 -2.625 7.828125 -3.0625 C 7.828125 -3.570312 7.617188 -3.941406 7.203125 -4.171875 C 6.960938 -4.304688 6.578125 -4.375 6.046875 -4.375 L 4.109375 -4.375 C 2.929688 -4.375 2.082031 -4.585938 1.5625 -5.015625 C 1.238281 -5.285156 0.984375 -5.625 0.796875 -6.03125 C 0.617188 -6.4375 0.53125 -6.875 0.53125 -7.34375 C 0.53125 -8.0625 0.742188 -8.722656 1.171875 -9.328125 C 1.585938 -9.910156 2.253906 -10.253906 3.171875 -10.359375 C 3.484375 -10.390625 3.945312 -10.40625 4.5625 -10.40625 L 9.71875 -10.40625 L 9.71875 -8.546875 L 5.0625 -8.546875 C 4.363281 -8.535156 3.898438 -8.503906 3.671875 -8.453125 C 3.203125 -8.335938 2.96875 -7.988281 2.96875 -7.40625 C 2.96875 -6.90625 3.164062 -6.570312 3.5625 -6.40625 C 3.820312 -6.28125 4.257812 -6.21875 4.875 -6.21875 L 6.546875 -6.21875 C 7.390625 -6.21875 8.019531 -6.144531 8.4375 -6 C 9.175781 -5.75 9.6875 -5.3125 9.96875 -4.6875 C 10.1875 -4.1875 10.296875 -3.648438 10.296875 -3.078125 C 10.296875 -2.441406 10.148438 -1.875 9.859375 -1.375 C 9.453125 -0.664062 8.84375 -0.238281 8.03125 -0.09375 C 7.644531 -0.03125 7.050781 0 6.25 0 Z M 1.015625 0 "/></g></g></g><g fill="#262755" fill-opacity="1"><g transform="translate(267.870986, 98.984955)"><g><path d="M 5.640625 -10.46875 C 6.679688 -10.46875 7.59375 -10.289062 8.375 -9.9375 C 9.300781 -9.507812 9.953125 -8.796875 10.328125 -7.796875 C 10.617188 -7.023438 10.765625 -6.113281 10.765625 -5.0625 C 10.765625 -4 10.585938 -3.078125 10.234375 -2.296875 C 9.785156 -1.367188 9.097656 -0.71875 8.171875 -0.34375 C 7.492188 -0.0703125 6.707031 0.0625 5.8125 0.0625 C 4.632812 0.0625 3.613281 -0.15625 2.75 -0.59375 C 2.019531 -0.957031 1.460938 -1.53125 1.078125 -2.3125 C 0.691406 -3.09375 0.5 -4.039062 0.5 -5.15625 C 0.5 -7.132812 0.992188 -8.546875 1.984375 -9.390625 C 2.816406 -10.097656 4.035156 -10.457031 5.640625 -10.46875 Z M 5.65625 -8.71875 C 4.632812 -8.71875 3.90625 -8.390625 3.46875 -7.734375 C 3.113281 -7.210938 2.9375 -6.375 2.9375 -5.21875 C 2.9375 -4 3.15625 -3.101562 3.59375 -2.53125 C 4.03125 -1.96875 4.722656 -1.6875 5.671875 -1.6875 C 6.585938 -1.6875 7.257812 -1.972656 7.6875 -2.546875 C 8.113281 -3.117188 8.328125 -4.003906 8.328125 -5.203125 C 8.328125 -6.296875 8.148438 -7.128906 7.796875 -7.703125 C 7.398438 -8.367188 6.6875 -8.707031 5.65625 -8.71875 Z M 5.65625 -8.71875 "/></g></g></g><g fill="#262755" fill-opacity="1"><g transform="translate(279.142608, 98.984955)"><g><path d="M 0.9375 -10.40625 L 3.140625 -10.40625 L 3.140625 -4.5625 C 3.171875 -3.820312 3.203125 -3.332031 3.234375 -3.09375 C 3.304688 -2.613281 3.535156 -2.285156 3.921875 -2.109375 C 4.304688 -1.941406 4.984375 -1.859375 5.953125 -1.859375 L 8.0625 -1.859375 L 8.0625 0 L 5.71875 0 C 4.601562 0 3.796875 -0.0625 3.296875 -0.1875 C 2.148438 -0.519531 1.421875 -1.25 1.109375 -2.375 C 0.992188 -2.8125 0.9375 -3.539062 0.9375 -4.5625 Z M 0.9375 -10.40625 "/></g></g></g><g fill="#262755" fill-opacity="1"><g transform="translate(287.448012, 98.984955)"><g><path d="M 3.140625 -10.40625 L 3.140625 -4.171875 C 3.140625 -3.671875 3.179688 -3.28125 3.265625 -3 C 3.347656 -2.726562 3.488281 -2.492188 3.6875 -2.296875 C 4.125 -1.867188 4.734375 -1.65625 5.515625 -1.65625 C 6.015625 -1.65625 6.445312 -1.738281 6.8125 -1.90625 C 7.1875 -2.082031 7.445312 -2.316406 7.59375 -2.609375 C 7.726562 -2.898438 7.796875 -3.421875 7.796875 -4.171875 L 7.796875 -10.40625 L 10.015625 -10.40625 L 10.015625 -4.28125 C 10.015625 -3.46875 9.925781 -2.796875 9.75 -2.265625 C 9.582031 -1.742188 9.320312 -1.320312 8.96875 -1 C 8.15625 -0.28125 6.992188 0.078125 5.484375 0.078125 C 3.867188 0.078125 2.691406 -0.273438 1.953125 -0.984375 C 1.566406 -1.347656 1.300781 -1.753906 1.15625 -2.203125 C 1.007812 -2.660156 0.9375 -3.300781 0.9375 -4.125 L 0.9375 -10.40625 Z M 3.140625 -10.40625 "/></g></g></g><g fill="#262755" fill-opacity="1"><g transform="translate(298.423009, 98.984955)"><g><path d="M 3.375 -8.546875 L 0.0625 -8.546875 L 0.0625 -10.40625 L 9.03125 -10.40625 L 9.03125 -8.546875 L 5.59375 -8.546875 L 5.59375 0 L 3.375 0 Z M 3.375 -8.546875 "/></g></g></g><g fill="#262755" fill-opacity="1"><g transform="translate(307.540223, 98.984955)"><g><path d="M 1.0625 0 L 1.0625 -10.40625 L 3.28125 -10.40625 L 3.28125 0 Z M 1.0625 0 "/></g></g></g><g fill="#262755" fill-opacity="1"><g transform="translate(311.864659, 98.984955)"><g><path d="M 5.640625 -10.46875 C 6.679688 -10.46875 7.59375 -10.289062 8.375 -9.9375 C 9.300781 -9.507812 9.953125 -8.796875 10.328125 -7.796875 C 10.617188 -7.023438 10.765625 -6.113281 10.765625 -5.0625 C 10.765625 -4 10.585938 -3.078125 10.234375 -2.296875 C 9.785156 -1.367188 9.097656 -0.71875 8.171875 -0.34375 C 7.492188 -0.0703125 6.707031 0.0625 5.8125 0.0625 C 4.632812 0.0625 3.613281 -0.15625 2.75 -0.59375 C 2.019531 -0.957031 1.460938 -1.53125 1.078125 -2.3125 C 0.691406 -3.09375 0.5 -4.039062 0.5 -5.15625 C 0.5 -7.132812 0.992188 -8.546875 1.984375 -9.390625 C 2.816406 -10.097656 4.035156 -10.457031 5.640625 -10.46875 Z M 5.65625 -8.71875 C 4.632812 -8.71875 3.90625 -8.390625 3.46875 -7.734375 C 3.113281 -7.210938 2.9375 -6.375 2.9375 -5.21875 C 2.9375 -4 3.15625 -3.101562 3.59375 -2.53125 C 4.03125 -1.96875 4.722656 -1.6875 5.671875 -1.6875 C 6.585938 -1.6875 7.257812 -1.972656 7.6875 -2.546875 C 8.113281 -3.117188 8.328125 -4.003906 8.328125 -5.203125 C 8.328125 -6.296875 8.148438 -7.128906 7.796875 -7.703125 C 7.398438 -8.367188 6.6875 -8.707031 5.65625 -8.71875 Z M 5.65625 -8.71875 "/></g></g></g><g fill="#262755" fill-opacity="1"><g transform="translate(323.136281, 98.984955)"><g><path d="M 3.1875 -7.640625 L 3.1875 0 L 1.0625 0 L 1.0625 -10.40625 L 3.90625 -10.40625 L 8.03125 -2.65625 L 8.03125 -10.40625 L 10.140625 -10.40625 L 10.140625 0 L 7.4375 0 Z M 3.1875 -7.640625 "/></g></g></g></svg>